<svg width="130" height="90" viewBox="0 0 301 151" fill="none" xmlns="http://www.w3.org/2000/svg">
<path fill-rule="evenodd" clip-rule="evenodd" d="M85.8911 73.3092C85.7728 72.9588 84.867 73.3856 84.2088 73.6957L84.2087 73.6958L84.2086 73.6958C83.9766 73.8051 83.7754 73.8999 83.6503 73.9411C84.2703 77.1535 84.44 80.5141 84.5954 83.5925L84.6106 83.8933C81.4094 82.3136 75.4871 78.3643 73.8865 77.1005L72.7661 77.5744V77.1005L71.1654 77.5744C71.0327 77.6618 70.9489 77.7008 70.8971 77.725C70.8569 77.7437 70.836 77.7535 70.8264 77.7698C70.8161 77.7876 70.8192 77.8131 70.8255 77.8663C70.8331 77.9294 70.8453 78.0317 70.8453 78.2063C71.3255 82.4716 70.5252 87.0528 69.0846 91.634C65.8834 88.9485 62.8422 85.1571 62.0419 81.6817C61.7218 81.8397 61.4016 81.9977 60.9215 81.9977C60.7912 82.0405 60.6845 82.0601 60.6013 82.0754C60.378 82.1164 60.3246 82.1262 60.4413 82.4716C61.7218 87.2108 65.4032 91.0021 67.9642 92.8978C67.4033 93.1017 66.8316 93.311 66.2479 93.5247L66.2379 93.5283L66.2332 93.5301L66.224 93.5335L66.2214 93.5344L66.2192 93.5352L66.2121 93.5378L66.2119 93.5379C63.6407 94.4793 60.8387 95.5052 57.7202 96.5311C57.1788 96.7315 56.523 96.9319 55.789 97.1561C54.7869 97.4623 53.6392 97.8129 52.4382 98.2688C54.3589 95.5833 58.6806 87.2108 60.2812 82.1556L57.8803 83.1035C55.3193 89.1064 51.3177 95.4253 49.5571 98.1108C49.477 98.1898 49.437 98.2688 49.397 98.3478C49.357 98.4268 49.317 98.5058 49.2369 98.5848C47.6363 95.5833 46.9961 92.1079 48.2766 88.1586C48.4366 87.5267 46.1958 89.1064 46.0357 89.2644C45.4954 89.531 45.411 89.9102 45.3017 90.4018L45.3016 90.402C45.2814 90.4928 45.2603 90.5876 45.2354 90.6861C45.0753 91.634 44.9153 92.5818 44.9153 93.6876C44.9153 95.8992 45.7156 98.1108 46.9961 100.164C45.4019 100.621 43.7417 101.111 42.042 101.612L42.0419 101.612L42.0419 101.612L42.0418 101.612L42.0418 101.612L42.0417 101.612C38.4508 102.67 34.6835 103.781 30.9899 104.746V104.272C31.7902 100.48 35.6317 95.5833 40.1134 93.0557L41.2338 91.792L35.1515 95.8992C32.2704 98.2688 29.0691 102.06 28.2688 105.536C27.1484 110.591 30.9899 114.54 35.1515 117.541C39.6332 120.701 44.4351 122.281 49.8772 123.86C55.7995 125.598 67.9642 127.178 74.2066 127.178H75.327C75.327 127.178 75.6472 126.704 75.6472 126.546C75.6761 126.489 75.7293 126.387 75.8043 126.244C76.9753 124.008 83.4458 111.653 85.2509 101.112C87.0116 93.2137 87.972 83.1035 85.8911 73.3092ZM72.7661 78.0484C75.327 79.7861 82.0497 83.5774 84.4506 84.5252C81.4094 86.7368 77.0877 89.2644 70.8453 91.792C72.7661 85.789 73.0862 80.8919 72.7661 78.0484ZM67.6441 95.2673C65.2431 96.3731 62.5221 97.479 59.641 98.4268C56.9199 99.3746 54.0388 100.164 51.1578 100.954L51.1577 100.954C52.7583 103.008 54.8391 104.904 57.24 106.641L57.2401 106.641C58.3605 107.431 59.4809 108.221 60.7614 108.853C63.1623 104.746 65.7233 100.007 67.6441 95.2673ZM40.8248 103.394L40.8249 103.394L40.8252 103.394L40.8268 103.394L40.8276 103.394C43.0292 102.908 45.2528 102.419 47.4762 101.902C45.7585 104.411 44.1292 106.629 42.677 108.606C40.7464 111.234 39.1288 113.436 38.0326 115.33C34.8313 112.96 31.6301 109.327 31.47 105.536C34.4985 104.788 37.6388 104.096 40.8248 103.394ZM46.3028 106.187C43.6624 109.266 40.9629 112.414 38.6728 115.804C38.8329 115.962 38.993 116.12 39.4731 116.278C43.9676 114.799 48.545 113.157 53.086 111.527C54.852 110.894 56.6125 110.262 58.3605 109.643C56.1196 108.537 54.0388 107.115 52.2781 105.536C52.0405 105.301 51.793 105.066 51.543 104.83C50.7828 104.109 49.9993 103.366 49.397 102.534C48.3946 103.748 47.3534 104.962 46.3028 106.187ZM51.958 122.123L51.958 122.123L51.9579 122.123C51.7979 122.083 51.6378 122.044 51.4778 121.965C45.8756 120.069 43.4747 119.121 40.1134 116.91C41.0357 116.625 43.0789 116.074 45.5628 115.405L45.5632 115.405L45.5647 115.404L45.5653 115.404L45.5656 115.404C49.9787 114.214 55.7816 112.65 59.1608 111.538C57.9444 113.497 56.7793 115.304 55.7575 116.889L55.7572 116.889C54.2245 119.266 53.0144 121.143 52.4382 122.281C52.2781 122.202 52.1181 122.162 51.958 122.123ZM55.9595 123.228C61.8818 124.334 70.6852 125.756 75.0069 126.23C75.5627 125.023 76.4272 122.674 77.4397 119.922L77.4398 119.922C77.8852 118.711 78.3594 117.423 78.8484 116.12C70.9795 119.869 65.8705 121.008 59.5251 122.422C58.3843 122.676 57.2035 122.94 55.9595 123.228ZM54.519 122.597C54.0388 122.597 53.8787 122.597 53.5586 122.439C56.7598 118.647 59.641 115.014 61.8818 111.381C69.8849 114.698 77.888 115.33 78.8484 115.33C75.0069 116.91 55.4794 122.439 54.519 122.597ZM79.1685 115.014C80.7692 110.275 82.3698 105.22 83.01 102.06C83.01 101.823 83.05 101.586 83.0901 101.349C83.1301 101.112 83.1701 100.875 83.1701 100.638C80.1289 102.692 68.6044 107.905 63.1623 110.117C68.1243 112.486 73.8865 114.066 79.1685 115.014ZM83.4902 99.6906C80.289 101.586 69.4048 105.694 64.2828 107.589C67.0038 102.85 68.9246 98.4268 70.2051 94.4775C75.8072 97.7949 81.5695 99.2166 83.4902 99.6906ZM71.4856 93.5296C75.167 95.8992 79.1685 97.9529 83.4902 99.0587C84.1305 95.2673 84.6106 90.5282 84.6106 85.631C84.1305 86.1049 79.0085 89.7383 71.4856 93.5296Z" fill="url(#paint0_radial_704_15105)"/>
<path fill-rule="evenodd" clip-rule="evenodd" d="M49.8442 31.7576C48.5802 32.7155 46.3682 34.9508 48.4222 36.5475C48.1939 36.3827 47.8713 36.1975 47.5156 35.9932C46.1483 35.2082 44.2918 34.1422 45.4202 32.8752C48.4222 28.8836 64.6959 23.1357 67.6979 22.1777C68.9619 27.6063 71.9638 33.9929 76.0718 41.1777L73.8598 40.8584C72.4378 38.4634 71.3318 36.2282 70.3839 34.1525C68.3299 36.0685 66.4339 37.3458 63.748 38.7828L61.378 38.4634C64.1108 36.5805 66.7459 35.1911 68.5923 34.2175C69.0945 33.9527 69.5383 33.7187 69.9099 33.5139V33.3542C64.6959 33.0349 55.0581 31.1189 52.2141 30.0013C53.0717 30.7891 54.9678 32.6653 56.8397 34.5175C58.7615 36.4191 60.6576 38.2954 61.378 38.9424L58.534 39.1021C57.4138 37.9701 55.1023 35.0723 53.2887 32.7988C52.5443 31.8657 51.8839 31.0378 51.4241 30.4803C51.1871 30.7198 50.9106 30.9193 50.6341 31.1189C50.3576 31.3185 50.0811 31.5181 49.8442 31.7576ZM69.2779 32.2366C68.0139 29.0433 67.3819 26.1693 67.0659 22.9761C66.1179 23.2954 58.534 26.0097 53.0041 29.5223C56.3221 29.8416 65.4859 31.2786 69.2779 32.2366Z" fill="url(#paint1_radial_704_15105)"/>
<path fill-rule="evenodd" clip-rule="evenodd" d="M123.913 63.8598C118.195 54.9572 109.617 46.6906 83.7252 41.9213C81.6286 41.551 79.3645 41.2047 76.7097 40.7986C72.526 40.1587 67.372 39.3703 60.375 38.1059C56.4039 37.47 44.4906 35.5623 45.9202 33.1777C45.1259 34.1316 45.7613 35.0854 46.2378 35.5623C47.5768 37.0835 49.0559 38.4643 50.5417 39.8515C55.5782 44.5534 60.6927 49.3283 60.6927 59.8854C60.6927 72.4444 49.4147 84.2085 37.9779 93.588L37.9779 93.588C37.3425 94.0649 36.7071 94.5419 36.0718 95.1777C49.7324 86.7521 58.31 83.4136 68.9526 79.2803C82.2956 74.0341 108.823 66.5624 124.072 64.4957L123.913 63.8598ZM101.675 49.3931C103.263 50.029 104.693 50.6649 106.122 51.3008C98.8155 52.8906 92.3028 54.9572 86.4256 57.3418C88.6494 52.8906 89.6025 48.9162 89.9202 45.5777C93.8913 46.6906 97.8624 47.9623 101.675 49.3931ZM75.4653 53.5265C78.3245 54.6393 81.0248 56.07 83.7252 57.6598C86.9021 52.5726 88.4906 48.4393 88.6494 45.4188C83.7252 47.9623 79.2776 50.8239 75.4653 53.5265ZM61.6458 52.2547C64.1873 52.7316 67.2054 53.6854 70.5411 54.9572C67.9996 57.0239 65.1404 59.5675 61.9635 62.747C62.44 59.0906 62.1223 55.4341 61.6458 52.2547ZM66.8877 67.9931C69.1115 64.1777 70.8588 60.3623 71.653 56.547C67.2054 59.8854 63.8696 62.9059 62.2812 64.6547C63.5519 65.1316 65.2992 66.2444 66.8877 67.9931ZM73.5591 56.07C75.9418 57.1829 78.4833 58.4547 81.0248 59.7265C76.8949 61.6341 73.2415 63.7008 69.9057 65.9265C71.8118 62.588 73.0826 59.2495 73.5591 56.07ZM74.0357 52.2547C78.4833 49.0752 82.4544 47.1675 87.2198 45.1008C82.1368 43.988 77.2126 43.0341 72.1295 42.2393C73.4003 45.1008 74.1945 48.5982 74.0357 52.2547ZM71.0176 42.0803C72.1295 45.4188 72.4472 48.9162 72.1295 52.4136C68.7938 51.3008 65.2992 50.347 62.1223 49.5521C64.3461 47.1675 67.523 44.6239 71.0176 42.0803ZM56.4039 39.2188C53.8624 38.5829 51.6386 37.947 49.7324 37.3111C53.7035 40.3316 56.8804 43.829 59.1043 47.8034C58.8651 47.0373 58.6259 46.2425 58.378 45.4188L58.378 45.4187C57.8028 43.5073 57.1809 41.4407 56.4039 39.2188ZM57.5158 39.5367C61.8278 40.5784 66.4181 41.3415 69.3325 41.8259L69.9057 41.9213C67.8407 43.0341 63.0754 45.8957 60.8516 48.5982C59.8443 44.7098 58.4459 41.6041 57.7193 39.9904C57.6438 39.8228 57.5756 39.6713 57.5158 39.5367ZM64.505 69.4239C63.5519 68.629 62.44 67.8341 61.0104 67.1982C60.2162 69.9008 58.9454 72.6034 57.1981 74.988C59.2631 73.2393 61.8046 71.3316 64.505 69.4239ZM56.9597 76.6832L56.9598 76.6831C58.8115 75.3829 61.1148 73.7656 63.8696 71.9675C60.375 76.2598 55.7685 80.3931 50.209 83.7316C52.1151 81.8239 53.8624 79.9162 55.292 77.8495C55.7999 77.4976 56.3558 77.1073 56.9597 76.6832ZM66.2523 71.3316C63.0754 75.6239 58.6277 79.7572 52.7505 83.8906C56.8308 81.7126 61.0276 80.0009 66.0389 77.957L66.039 77.9569L66.0393 77.9568L66.0394 77.9567L66.0406 77.9563C66.8814 77.6133 67.745 77.2611 68.635 76.8957C68.4761 75.147 67.6819 73.2393 66.2523 71.3316ZM69.7469 76.5777C69.7469 73.5572 68.9526 71.3316 67.9996 69.4239C71.8118 67.1982 76.1007 64.8136 80.866 62.429C78.0068 66.5623 74.3534 71.3316 69.7469 76.5777ZM84.0429 61.6341C81.1837 66.0854 77.2126 70.8547 71.4942 75.9418C79.5952 72.9213 86.9021 70.6957 93.2559 68.947C90.5555 66.2444 87.3786 63.7008 84.0429 61.6341ZM94.8443 68.47C92.6205 64.8136 89.7613 61.9521 86.5844 59.5675C92.7794 56.8649 99.7685 54.1623 107.234 52.0957C105.463 55.2866 102.814 58.5654 99.091 63.173C97.806 64.7633 96.3932 66.512 94.8443 68.47ZM108.505 52.5726C105.328 59.2495 102.628 62.588 96.9093 67.9931C110.411 64.6547 119.465 64.0188 122.801 63.8598C122.483 63.7008 122.324 63.5418 122.166 63.3829C119.783 60.5213 115.176 56.229 108.505 52.5726Z" fill="url(#paint2_radial_704_15105)"/>
<path fill-rule="evenodd" clip-rule="evenodd" d="M157.072 81.2577C157.072 81.8977 156.913 82.2177 156.437 82.6977C156.12 83.0177 155.644 83.3377 155.01 83.3377C154.375 83.3377 153.899 83.1777 153.582 82.6977C153.265 82.3777 152.947 81.8977 152.947 81.2577C152.947 80.6177 153.106 80.2977 153.582 79.8177C153.899 79.4977 154.375 79.1777 155.01 79.1777C155.644 79.1777 155.961 79.3377 156.437 79.6577C156.913 80.2977 157.072 80.7777 157.072 81.2577ZM83.624 124.938V127.178H83.9413L83.7826 123.818H83.3067L82.3549 126.058C82.3549 126.058 82.1963 126.218 82.1963 126.378C82.1963 126.378 82.0376 126.218 82.0376 126.058L81.0858 123.818H80.6099V127.018H80.9272V124.298C81.0858 124.458 81.0858 124.618 81.0858 124.618L82.1963 127.018H82.3549L83.4654 124.618C83.624 124.618 83.624 124.458 83.624 124.298V124.938ZM79.3409 124.298H80.2927V123.978H78.0718V124.298H79.0236V127.178H79.3409V124.298ZM156.279 79.9777C156.596 80.2977 156.755 80.7777 156.755 81.2577C156.755 81.7377 156.596 82.2177 156.279 82.5377C155.961 82.8577 155.485 83.0177 155.01 83.0177C154.534 83.0177 154.058 82.8577 153.74 82.5377C153.423 82.2177 153.265 81.7377 153.265 81.2577C153.265 80.7777 153.423 80.2977 153.74 79.9777C154.058 79.6577 154.534 79.4977 155.01 79.4977C155.485 79.4977 155.961 79.6577 156.279 79.9777ZM155.961 82.5377H155.485L155.168 81.8977C155.01 81.5777 154.851 81.4177 154.692 81.4177V82.5377H154.375V79.9777H155.168C155.485 79.9777 155.644 79.9777 155.961 80.1377C156.12 80.2977 156.12 80.4577 156.12 80.6177C156.12 80.7777 156.12 80.9377 155.961 81.0977C155.882 81.1777 155.803 81.2177 155.723 81.2577C155.644 81.2977 155.565 81.3377 155.485 81.4177C155.644 81.4177 155.803 81.5777 155.961 81.8977V82.5377ZM155.327 80.4577C155.485 80.4577 155.485 80.6177 155.485 80.7777C155.485 81.0977 155.327 81.2577 155.01 81.0977H154.692V80.2977H154.851C154.93 80.2977 155.01 80.3377 155.089 80.3777C155.168 80.4177 155.247 80.4577 155.327 80.4577Z" fill="#B4b6b6"/>
<path fill-rule="evenodd" clip-rule="evenodd" d="M147.498 77.7206C147.34 77.5492 147.023 77.5492 146.706 77.5492C145.914 77.5492 145.438 78.0634 145.438 79.092V80.292H147.023V81.3206H145.438V88.0063H144.329V81.3206H143.062V80.292H144.329V79.092C144.329 78.2349 144.646 77.5492 145.122 77.0349C145.597 76.692 146.072 76.3492 146.706 76.3492C147.023 76.3492 147.34 76.3492 147.498 76.5206V77.7206ZM108.835 78.0634C108.994 77.892 108.994 77.7206 108.994 77.5492C108.994 77.3777 108.994 77.2063 108.835 77.0349C108.677 76.8634 108.518 76.8634 108.36 76.8634C108.201 76.8634 108.043 76.8634 107.884 77.0349C107.726 77.2063 107.726 77.3777 107.726 77.5492C107.726 77.7206 107.726 77.892 107.884 78.0634C108.043 78.2349 108.201 78.2349 108.36 78.2349C108.518 78.2349 108.677 78.2349 108.835 78.0634ZM104.082 88.0063H105.191H105.349V77.3777H103.923L100.754 84.7492C100.595 85.092 100.437 85.6063 100.279 86.1206C100.12 85.7777 99.9617 85.2634 99.8032 84.7492L96.7926 77.2063H95.208V88.0063H96.3172V78.7492C96.3777 78.9456 96.4151 79.117 96.4471 79.2634C96.4988 79.5003 96.5362 79.6718 96.6341 79.7777L99.9617 88.0063H100.595L103.923 79.7777C104.021 79.6718 104.058 79.5003 104.11 79.2634L104.11 79.2634C104.142 79.117 104.179 78.9456 104.24 78.7492C104.082 79.6063 104.082 80.292 104.082 80.8063V88.0063ZM108.835 80.292V88.0063H107.726V80.292H108.835ZM113.906 88.1777C114.54 88.1777 115.332 88.0063 115.807 87.6634V86.4634C115.332 86.9777 114.698 87.1492 114.064 87.1492C113.272 87.1492 112.797 86.8063 112.321 86.292C111.846 85.7777 111.687 85.092 111.687 84.2349C111.687 83.3777 111.846 82.5206 112.321 82.0063C112.797 81.492 113.272 81.1492 114.064 81.1492C114.698 81.1492 115.332 81.3206 115.807 81.6634V80.4634C115.332 80.292 114.857 80.1206 114.223 80.1206C113.113 80.1206 112.163 80.4634 111.529 81.3206C110.895 82.1777 110.578 83.2063 110.578 84.4063C110.578 85.6063 110.895 86.4634 111.529 87.1492C112.004 87.8349 112.955 88.1777 113.906 88.1777ZM121.353 81.492C121.195 81.3206 120.878 81.3206 120.561 81.3206C120.086 81.3206 119.769 81.492 119.452 82.0063C119.135 82.5206 118.976 83.2063 118.976 84.0634V88.0063H117.867V80.292H118.976V81.8349C119.135 81.3206 119.452 80.8063 119.769 80.4634C120.086 80.1206 120.402 80.1206 120.878 80.1206C121.195 80.1206 121.353 80.1206 121.512 80.292V81.492H121.353ZM127.85 86.9777C128.484 86.292 128.801 85.2634 128.801 84.0634C128.801 82.8634 128.484 81.8349 128.008 81.1492C127.374 80.4634 126.582 80.1206 125.473 80.1206C124.364 80.1206 123.572 80.4634 122.938 81.1492C122.145 81.8349 121.829 82.8634 121.829 84.2349C121.829 85.2634 122.145 86.292 122.779 86.9777C123.413 87.6634 124.205 88.0063 125.315 88.0063C126.424 88.0063 127.216 87.6634 127.85 86.9777ZM127.533 84.2349C127.533 83.2063 127.374 82.5206 126.899 82.0063C126.424 81.492 125.948 81.3206 125.156 81.3206C124.522 81.3206 123.888 81.492 123.413 82.0063C122.938 82.5206 122.779 83.3777 122.779 84.2349C122.779 85.092 122.938 85.9492 123.413 86.4634C123.888 86.9777 124.364 87.3206 125.156 87.3206C125.948 87.3206 126.424 86.9777 126.899 86.4634C127.374 85.7777 127.533 85.092 127.533 84.2349ZM133.713 87.492C134.188 87.1492 134.347 86.6349 134.347 85.9492C134.347 85.4349 134.188 84.9206 134.03 84.7492C133.905 84.4796 133.585 84.316 133.145 84.0917L133.145 84.0916C133.026 84.0307 132.897 83.9653 132.762 83.892C132.128 83.5492 131.811 83.3777 131.653 83.2063C131.494 83.0349 131.336 82.692 131.336 82.3492C131.336 82.1777 131.494 81.8349 131.653 81.6634C131.97 81.492 132.287 81.3206 132.604 81.3206C133.237 81.3206 133.713 81.492 134.188 81.8349V80.6349C133.713 80.4634 133.237 80.292 132.604 80.292C131.97 80.292 131.336 80.6349 130.861 80.9777C130.385 81.3206 130.227 81.8349 130.227 82.5206C130.227 83.0349 130.385 83.5492 130.702 83.892C131.019 84.2349 131.336 84.4063 131.97 84.7492C132.445 84.9206 132.92 85.2634 133.079 85.4349C133.237 85.6063 133.396 85.7777 133.396 86.1206C133.396 86.8063 132.92 87.1492 131.97 87.1492C131.177 87.1492 130.702 86.9777 130.068 86.4634V87.6634C130.544 88.0063 131.177 88.1777 131.811 88.1777C132.604 88.1777 133.237 88.0063 133.713 87.492ZM142.428 84.0634C142.428 85.2634 142.111 86.292 141.477 86.9777C140.843 87.6634 140.051 88.0063 138.942 88.0063C137.833 88.0063 137.04 87.6634 136.406 86.9777C135.773 86.292 135.456 85.2634 135.456 84.2349C135.456 82.8634 135.773 81.8349 136.565 81.1492C137.199 80.4634 137.991 80.1206 139.1 80.1206C140.209 80.1206 141.002 80.4634 141.635 81.1492C142.111 81.8349 142.428 82.8634 142.428 84.0634ZM140.685 82.0063C141.16 82.5206 141.319 83.2063 141.319 84.2349C141.319 85.092 141.16 85.7777 140.685 86.4634C140.209 86.9777 139.734 87.3206 138.942 87.3206C138.149 87.3206 137.674 86.9777 137.199 86.4634C136.723 85.9492 136.565 85.092 136.565 84.2349C136.565 83.3777 136.723 82.5206 137.199 82.0063C137.674 81.492 138.308 81.3206 138.942 81.3206C139.734 81.3206 140.209 81.492 140.685 82.0063ZM150.826 88.1777C151.301 88.1777 151.618 88.1777 151.935 88.0063V86.8063C151.618 86.9777 151.46 86.9777 151.143 86.9777C150.826 86.9777 150.509 86.8063 150.351 86.6349C150.192 86.4634 150.034 86.1206 150.034 85.6063V81.3206H151.777V80.292H150.034V78.0634C149.875 78.1492 149.677 78.192 149.479 78.2349C149.281 78.2777 149.083 78.3206 148.924 78.4063V80.292H147.657V81.3206H148.924V85.9492C148.924 87.492 149.558 88.1777 150.826 88.1777Z" fill="#B4b6b6"/>
<path fill-rule="evenodd" clip-rule="evenodd" d="M95.3295 116.687V121.011C98.1904 122.292 101.051 122.933 103.912 122.612C107.25 121.972 109.952 120.691 111.065 117.168C112.018 113.805 111.065 110.922 108.045 108.52C107.5 108.154 106.955 107.811 106.418 107.474L106.418 107.474L106.418 107.474L106.418 107.474C105.547 106.926 104.699 106.393 103.912 105.798C102.641 104.997 101.369 104.037 100.257 103.076C99.1441 101.955 98.5083 100.514 99.1441 98.9124C99.6209 97.1509 100.892 96.1901 102.482 96.03C103.912 95.8698 105.343 96.03 106.614 96.1901C107.356 96.2968 108.098 96.5459 108.839 96.795C109.21 96.9196 109.581 97.0441 109.952 97.1509V93.3077C106.932 92.0266 104.071 91.8665 101.051 92.6671C98.0315 93.3077 96.1242 95.2293 95.3295 98.2718C94.5348 101.154 95.6474 103.556 97.7136 105.478C98.7546 106.41 99.8798 107.173 101.028 107.951L101.028 107.951L101.028 107.951L101.028 107.951C101.458 108.242 101.89 108.536 102.323 108.841C102.769 109.19 103.214 109.508 103.65 109.819L103.651 109.82L103.651 109.82L103.651 109.82C104.614 110.507 105.531 111.162 106.296 112.043C108.681 114.606 107.568 117.808 104.389 118.769C102.164 119.41 99.9388 118.769 97.8726 117.808C97.0778 117.488 96.2831 117.168 95.3295 116.687ZM132.839 129.018L132.84 129.018C134.588 129.018 136.336 129.018 137.767 129.178C137.131 128.457 136.456 127.737 135.78 127.016L135.78 127.016L135.78 127.016C135.104 126.295 134.429 125.575 133.793 124.854C133.692 124.732 133.594 124.613 133.497 124.495C132.832 123.687 132.242 122.971 131.409 122.132C132.045 121.812 132.363 121.651 132.84 121.491C135.065 120.691 136.813 119.089 138.244 117.168C140.31 114.285 141.263 111.083 141.263 107.72C141.422 104.677 140.946 101.795 139.674 99.0725C137.29 94.1083 132.363 91.5462 126.164 92.3469C119.806 92.9874 115.674 96.5104 114.402 102.595C113.926 104.677 113.926 106.919 114.085 109.161C114.402 116.367 118.535 120.851 125.369 122.292C126.482 122.612 127.436 123.093 128.23 123.893C129.979 125.495 131.409 127.256 132.839 129.018ZM118.02 108.64C117.985 108.23 117.951 107.815 117.899 107.399C117.899 104.197 118.694 101.314 121.078 98.7522C123.621 95.7097 126.959 95.3894 130.614 96.03C133.952 96.6705 136.018 98.9124 136.972 102.275C137.767 105.638 137.926 108.841 136.972 112.204C135.542 117.168 131.886 119.249 126.959 119.089C122.826 118.929 119.171 115.406 118.376 111.083C118.161 110.325 118.091 109.494 118.02 108.64ZM256.496 120.691C252.681 122.452 248.866 123.413 244.893 121.331C242.191 119.89 240.443 117.808 239.966 114.766C239.33 110.762 239.489 106.919 242.35 103.716C244.734 100.994 247.913 100.033 251.409 100.674C255.224 101.475 257.449 104.517 257.767 108.841V112.524H243.621C243.462 116.527 247.118 119.89 250.615 119.089C252.265 118.812 253.916 118.295 255.67 117.746C255.943 117.66 256.218 117.574 256.496 117.488V120.691ZM253.794 109.321H243.78C244.098 105.958 246.323 103.716 249.343 103.877C251.886 104.037 253.794 106.279 253.794 109.321ZM204.999 112.684H190.853C190.853 117.008 194.35 120.05 198.323 119.249C199.277 119.036 200.23 118.68 201.184 118.324C201.661 118.146 202.138 117.968 202.615 117.808C202.932 117.648 203.25 117.488 203.886 117.328V120.691C200.23 122.452 196.575 123.413 192.601 121.651C188.787 119.89 187.197 116.847 187.038 112.684C186.879 109.001 187.674 105.798 190.376 103.236C193.237 100.514 196.734 99.8732 200.23 101.475C203.727 102.916 204.84 105.958 204.999 109.481V112.684ZM195.939 103.877C198.959 103.716 201.025 105.798 201.184 109.321H191.33C191.012 106.599 193.237 104.037 195.939 103.877ZM168.76 116.847C169.199 117.037 169.588 117.226 169.958 117.406C170.524 117.682 171.044 117.935 171.621 118.128C173.369 118.609 175.118 118.929 176.866 119.089C178.615 119.089 179.886 118.289 180.681 116.687C181.475 114.926 180.999 113.324 179.727 112.204C178.869 111.339 177.822 110.57 176.804 109.822C176.503 109.601 176.203 109.381 175.913 109.161C175.385 108.748 174.814 108.356 174.24 107.962L174.24 107.962C173.257 107.288 172.265 106.607 171.462 105.798C169.237 103.716 168.124 101.314 169.237 98.1117C170.35 94.7489 172.734 92.9874 176.071 92.6671C177.311 92.5711 178.551 92.6479 179.791 92.7248C180.617 92.776 181.444 92.8273 182.27 92.8273C182.797 92.8273 183.214 93.0471 183.704 93.3046L183.704 93.3048C183.805 93.3581 183.91 93.4129 184.019 93.4678V97.311C183.533 97.0664 183.047 96.9152 182.632 96.786C182.504 96.7461 182.383 96.7083 182.27 96.6705C180.204 95.8698 178.138 95.5496 175.913 96.1901C173.211 96.8306 171.621 100.834 174.323 103.076C175.595 104.197 177.025 105.158 178.456 106.118C178.725 106.308 178.998 106.498 179.274 106.689C180.628 107.628 182.036 108.604 183.224 109.801C186.879 113.324 185.926 119.249 181.475 121.491C177.502 123.573 173.369 122.932 169.396 121.331C168.76 119.73 168.76 118.449 168.76 116.847ZM149.528 118.289H160.972V121.812H145.873V92.8273H149.687C149.528 101.314 149.528 109.641 149.528 118.289ZM224.072 101.154H220.098C222.8 108.2 225.343 115.086 227.568 121.812H231.383C232.284 119.516 233.184 117.239 234.085 114.961L234.085 114.961C235.886 110.406 237.688 105.851 239.489 101.154H235.674C234.721 103.796 233.727 106.399 232.734 109.001L232.733 109.003C231.74 111.604 230.747 114.206 229.794 116.847H229.476C228.601 114.205 227.688 111.603 226.774 109.001C225.86 106.399 224.946 103.796 224.072 101.154ZM212.151 121.812H208.336V101.154H211.992C211.992 101.508 212.023 101.861 212.058 102.256C212.101 102.756 212.151 103.321 212.151 104.037C213.74 100.994 216.284 100.354 219.144 100.834V104.357H218.35C215.012 103.877 212.628 105.638 212.31 109.001C212.231 110.442 212.191 111.883 212.151 113.324C212.111 114.766 212.072 116.207 211.992 117.648C212.151 118.929 212.151 120.37 212.151 121.812ZM272.072 104.197V100.674C269.052 100.354 266.668 100.994 265.237 103.877C265.2 103.614 265.163 103.369 265.128 103.137C265.013 102.38 264.919 101.767 264.919 101.154H261.264V121.812H265.078V110.442C265.078 105.958 267.462 103.877 271.754 104.357C271.754 104.357 271.913 104.357 272.072 104.197Z" fill="#B4b6b6"/>
<defs>
<radialGradient id="paint0_radial_704_15105" cx="0" cy="0" r="1" gradientUnits="userSpaceOnUse" gradientTransform="translate(92.3747 67.8432) scale(92.4596 84.6241)">
<stop stop-color="white"/>
<stop offset="0.866" stop-color="#B4b6b6"/>
<stop offset="0.994" stop-color="#B4b6b6"/>
</radialGradient>
<radialGradient id="paint1_radial_704_15105" cx="0" cy="0" r="1" gradientUnits="userSpaceOnUse" gradientTransform="translate(81.1024 46.0171) scale(44.6924 27.3921)">
<stop stop-color="white"/>
<stop offset="0.866" stop-color="#B4b6b6"/>
<stop offset="0.994" stop-color="#B4b6b6"/>
</radialGradient>
<radialGradient id="paint2_radial_704_15105" cx="0" cy="0" r="1" gradientUnits="userSpaceOnUse" gradientTransform="translate(70.3691 65.2979) scale(38.0528 26.8099)">
<stop stop-color="#B4b6b6"/>
<stop offset="1" stop-color="#B4b6b6"/>
</radialGradient>
</defs>
</svg>
